# xmcd
#
# Track frame offsets:
#	150
#	26837
#	40425
#	52552
#	65900
#	77567
#	92247
#	109982
#	124842
#	149442
#	169177
#	181017
#	193000
#	206887
#	218125
#	231575
#	242537
#	256642
#	267020
#	280092
#	293170
#	305745
#	319480
#	334192
#
# Disc length: 4612 seconds
#
# Revision: 1
# Processed by: cddbd v1.5.1PL0 Copyright (c) Steve Scherf et al.
# Submitted via: audiograbber 1.80
#
DISCID=71120218
DTITLE=Mahaliia Jackson - Silent Night - Golden Greats
DYEAR=1900
DGENRE=
TTITLE0=In The Upper Room
TTITLE1=Silent Night, Holy Night
TTITLE2=Walk Over God's Heaven
TTITLE3=Go Tell It On The Mountain
TTITLE4=Didn't Rain
TTITLE5=Hands Of God
TTITLE6=When The Saints Go Marching In
TTITLE7=I Bow On My Knees
TTITLE8=I Will Move On Up A Little Higher
TTITLE9=When I Wake Up In Glory
TTITLE10=Get Away Jordan
TTITLE11=Nobody Knows The Trouble I've Seen
TTITLE12=How I Got Over It
TTITLE13=Keep Your Hand On The Plow
TTITLE14=He's My Light
TTITLE15=Jesus Met The Woman At The Well
TTITLE16=It's Real
TTITLE17=Jesus
TTITLE18=What Then
TTITLE19=Said He Would
TTITLE20=I'm Glad Salvation Is Free
TTITLE21=Jesus Is With Me
TTITLE22=I Gave Up Everything To Follow Him
TTITLE23=I'm Going To Live The Life I Sing About In My Song
EXTD=
EXTT0=
EXTT1=
EXTT2=
EXTT3=
EXTT4=
EXTT5=
EXTT6=
EXTT7=
EXTT8=
EXTT9=
EXTT10=
EXTT11=
EXTT12=
EXTT13=
EXTT14=
EXTT15=
EXTT16=
EXTT17=
EXTT18=
EXTT19=
EXTT20=
EXTT21=
EXTT22=
EXTT23=
PLAYORDER=
